<?xml version="1.0" encoding="iso-8859-1"?>
<!-- Generator: Adobe Illustrator 19.0.0, SVG Export Plug-In . SVG Version: 6.00 Build 0)  -->
<svg version="1.1" id="Capa_1" xmlns="http://www.w3.org/2000/svg" xmlns:xlink="http://www.w3.org/1999/xlink" x="0px" y="0px"
	 viewBox="0 0 512.001 512.001" style="enable-background:new 0 0 512.001 512.001;" xml:space="preserve">
<polygon style="fill:#D4D2D3;" points="278.403,417.225 328.373,328.372 328.373,328.372 279.726,232.274 183.628,183.627 
	183.628,183.627 94.775,233.597 38.882,328.372 38.882,328.372 183.628,473.118 183.628,473.118 "/>
<polygon style="fill:#EFEDEE;" points="473.118,183.627 328.373,38.882 221.026,107.348 183.628,183.627 328.373,328.372 
	404.652,290.974 "/>
<polygon style="fill:#BAB8B9;" points="212.646,198.317 183.628,183.627 183.628,183.627 94.775,233.597 38.883,328.372 
	38.882,328.372 60.737,350.226 "/>
<polygon style="fill:#D4D2D3;" points="328.373,38.882 221.026,107.348 183.628,183.627 205.481,205.481 350.227,60.736 "/>
<rect x="136.692" y="-40.512" transform="matrix(0.7071 0.7071 -0.7071 0.7071 164.1879 -68.0081)" style="fill:#455058;" width="54.991" height="409.4"/>
<g>
	<path style="fill:#EFEDEE;" d="M56.676,287.435l-15.737-15.737c-0.934-0.934-2.45-0.934-3.385,0l-15.737,15.737
		c-0.934,0.934-0.934,2.45,0,3.385l15.737,15.737c0.934,0.934,2.45,0.934,3.385,0l15.737-15.737
		C57.61,289.884,57.61,288.369,56.676,287.435z"/>
	<path style="fill:#EFEDEE;" d="M84.44,259.669l-15.737-15.737c-0.934-0.934-2.45-0.934-3.385,0l-15.737,15.737
		c-0.934,0.934-0.934,2.45,0,3.385l15.737,15.737c0.934,0.934,2.45,0.934,3.385,0l15.737-15.737
		C85.375,262.12,85.375,260.605,84.44,259.669z"/>
	<path style="fill:#EFEDEE;" d="M112.205,231.905l-15.737-15.737c-0.934-0.934-2.45-0.934-3.385,0l-15.737,15.737
		c-0.934,0.934-0.934,2.45,0,3.385l15.737,15.737c0.934,0.934,2.45,0.934,3.385,0l15.737-15.737
		C113.14,234.356,113.14,232.84,112.205,231.905z"/>
	<path style="fill:#EFEDEE;" d="M139.969,204.14l-15.737-15.737c-0.934-0.934-2.45-0.934-3.385,0L105.11,204.14
		c-0.934,0.934-0.934,2.45,0,3.385l15.737,15.737c0.934,0.934,2.45,0.934,3.385,0l15.737-15.737
		C140.904,206.59,140.904,205.075,139.969,204.14z"/>
	<path style="fill:#EFEDEE;" d="M167.734,176.376l-15.737-15.737c-0.934-0.934-2.45-0.934-3.385,0l-15.737,15.737
		c-0.934,0.934-0.934,2.45,0,3.385l15.737,15.737c0.934,0.934,2.45,0.934,3.385,0l15.737-15.737
		C168.669,178.826,168.669,177.31,167.734,176.376z"/>
	<path style="fill:#EFEDEE;" d="M195.499,148.612l-15.737-15.737c-0.934-0.934-2.45-0.934-3.385,0l-15.737,15.737
		c-0.934,0.934-0.934,2.45,0,3.385l15.737,15.737c0.934,0.934,2.45,0.934,3.385,0l15.737-15.737
		C196.433,151.061,196.433,149.546,195.499,148.612z"/>
	<path style="fill:#EFEDEE;" d="M223.263,120.846l-15.737-15.737c-0.934-0.934-2.45-0.934-3.385,0l-15.737,15.737
		c-0.934,0.934-0.934,2.45,0,3.385l15.737,15.737c0.934,0.934,2.45,0.934,3.385,0l15.737-15.737
		C224.199,123.297,224.198,121.782,223.263,120.846z"/>
	<path style="fill:#EFEDEE;" d="M251.028,93.082l-15.737-15.737c-0.934-0.934-2.45-0.934-3.385,0l-15.737,15.737
		c-0.934,0.934-0.934,2.45,0,3.385l15.737,15.737c0.934,0.934,2.45,0.934,3.385,0l15.737-15.737
		C251.963,95.533,251.963,94.016,251.028,93.082z"/>
	<path style="fill:#EFEDEE;" d="M278.793,65.317L263.056,49.58c-0.934-0.934-2.45-0.934-3.385,0l-15.737,15.737
		c-0.934,0.934-0.934,2.45,0,3.385l15.737,15.737c0.934,0.934,2.45,0.934,3.385,0l15.737-15.737
		C279.727,67.767,279.727,66.252,278.793,65.317z"/>
	<path style="fill:#EFEDEE;" d="M306.557,37.553L290.82,21.816c-0.934-0.934-2.45-0.934-3.385,0l-15.737,15.737
		c-0.934,0.934-0.934,2.45,0,3.385l15.737,15.737c0.934,0.934,2.45,0.934,3.385,0l15.737-15.737
		C307.492,40.003,307.492,38.487,306.557,37.553z"/>
</g>
<polygon style="fill:#BAB8B9;" points="328.373,328.372 328.373,328.372 313.683,299.354 161.774,451.263 183.628,473.118 
	183.628,473.117 278.403,417.225 "/>
<polygon style="fill:#D4D2D3;" points="451.264,161.774 306.519,306.519 328.373,328.372 404.652,290.974 473.118,183.627 "/>
<rect x="320.318" y="143.112" transform="matrix(-0.7071 -0.7071 0.7071 -0.7071 347.8146 839.6943)" style="fill:#455058;" width="54.991" height="409.4"/>
<g>
	<path style="fill:#EFEDEE;" d="M224.565,455.324l15.737,15.737c0.934,0.934,0.934,2.45,0,3.385l-15.737,15.737
		c-0.934,0.934-2.45,0.934-3.385,0l-15.737-15.737c-0.934-0.934-0.934-2.45,0-3.385l15.737-15.737
		C222.116,454.39,223.631,454.39,224.565,455.324z"/>
	<path style="fill:#EFEDEE;" d="M252.331,427.56l15.737,15.737c0.934,0.934,0.934,2.45,0,3.385l-15.737,15.737
		c-0.934,0.934-2.45,0.934-3.385,0l-15.737-15.737c-0.934-0.934-0.934-2.45,0-3.385l15.737-15.737
		C249.88,426.626,251.395,426.626,252.331,427.56z"/>
	<path style="fill:#EFEDEE;" d="M280.095,399.796l15.737,15.737c0.934,0.934,0.934,2.45,0,3.385l-15.737,15.737
		c-0.934,0.934-2.45,0.934-3.385,0l-15.737-15.737c-0.934-0.934-0.934-2.45,0-3.385l15.737-15.737
		C277.644,398.86,279.16,398.86,280.095,399.796z"/>
	<path style="fill:#EFEDEE;" d="M307.86,372.031l15.737,15.737c0.934,0.934,0.934,2.45,0,3.385L307.86,406.89
		c-0.934,0.934-2.45,0.934-3.385,0l-15.737-15.737c-0.934-0.934-0.934-2.45,0-3.385l15.737-15.737
		C305.41,371.096,306.925,371.096,307.86,372.031z"/>
	<path style="fill:#EFEDEE;" d="M335.624,344.266l15.737,15.737c0.934,0.934,0.934,2.45,0,3.385l-15.737,15.737
		c-0.934,0.934-2.45,0.934-3.385,0l-15.737-15.737c-0.934-0.934-0.934-2.45,0-3.385l15.737-15.737
		C333.174,343.331,334.69,343.331,335.624,344.266z"/>
	<path style="fill:#EFEDEE;" d="M363.388,316.501l15.737,15.737c0.934,0.934,0.934,2.45,0,3.385l-15.737,15.737
		c-0.934,0.934-2.45,0.934-3.385,0l-15.737-15.737c-0.934-0.934-0.934-2.45,0-3.385l15.737-15.737
		C360.939,315.567,362.454,315.567,363.388,316.501z"/>
	<path style="fill:#EFEDEE;" d="M391.154,288.737l15.737,15.737c0.934,0.934,0.934,2.45,0,3.385l-15.737,15.737
		c-0.934,0.934-2.45,0.934-3.385,0l-15.737-15.737c-0.934-0.934-0.934-2.45,0-3.385l15.737-15.737
		C388.703,287.801,390.219,287.802,391.154,288.737z"/>
	<path style="fill:#EFEDEE;" d="M418.918,260.972l15.737,15.737c0.934,0.934,0.934,2.45,0,3.385l-15.737,15.737
		c-0.934,0.934-2.45,0.934-3.385,0l-15.737-15.737c-0.934-0.934-0.934-2.45,0-3.385l15.737-15.737
		C416.467,260.037,417.984,260.037,418.918,260.972z"/>
	<path style="fill:#EFEDEE;" d="M446.683,233.207l15.737,15.737c0.934,0.934,0.934,2.45,0,3.385l-15.737,15.737
		c-0.934,0.934-2.45,0.934-3.385,0l-15.737-15.737c-0.934-0.934-0.934-2.45,0-3.385l15.737-15.737
		C444.233,232.273,445.748,232.273,446.683,233.207z"/>
	<path style="fill:#EFEDEE;" d="M474.447,205.443l15.737,15.737c0.934,0.934,0.934,2.45,0,3.385l-15.737,15.737
		c-0.934,0.934-2.45,0.934-3.385,0l-15.737-15.737c-0.934-0.934-0.934-2.45,0-3.385l15.737-15.737
		C471.997,204.508,473.513,204.508,474.447,205.443z"/>
</g>
<g>
</g>
<g>
</g>
<g>
</g>
<g>
</g>
<g>
</g>
<g>
</g>
<g>
</g>
<g>
</g>
<g>
</g>
<g>
</g>
<g>
</g>
<g>
</g>
<g>
</g>
<g>
</g>
<g>
</g>
</svg>
